<svg xmlns="http://www.w3.org/2000/svg" width="78" height="78" viewBox="0 0 78 78" fill="none"><rect width="78" height="78" rx="24" fill="#3052FF"></rect><path fill-rule="evenodd" clip-rule="evenodd" d="M25.1488 26.5575C23.2206 24.7305 15.51 24.1387 13.1925 24.0015C12.8731 23.9858 12.5783 24.0915 12.3533 24.3053C12.1282 24.5167 12 24.8137 12 25.1242V45.3739C12 45.9949 12.504 46.499 13.125 46.499H19.8749C20.3609 46.499 20.7929 46.1863 20.9436 45.7227L20.9438 45.7222C20.9669 45.6514 21.0612 45.362 21.2078 44.9004C21.3923 45.0909 21.5905 45.2978 21.7966 45.5129L22.041 45.7679L22.06 45.7877C23.0576 46.83 24.0861 47.9045 24.7792 48.4859C28.9687 51.9936 34.0041 55.7803 35.0075 56.4395C35.8356 56.984 37.6198 57.749 39.0013 57.749C40.1105 57.749 40.9633 57.4947 41.555 56.9975C42.3469 57.3058 43.247 57.308 44.1132 56.9705C45.1369 56.5745 45.9784 55.7758 46.4554 54.8083C47.3418 54.9973 48.3566 54.8646 49.2791 54.4011C50.1813 53.9467 50.8338 53.2514 51.1577 52.4391C52.0533 52.4864 52.9757 52.1691 53.7384 51.5144C54.7674 50.6343 55.2023 49.3644 54.9589 48.1005L56.7391 46.9048C56.8646 47.3094 56.9668 47.6534 57.0412 47.9231C57.1762 48.4113 57.6195 48.7488 58.1257 48.7488H64.8756C65.4966 48.7488 66.0007 48.2448 66.0007 47.6238V27.3741C66.0007 26.7509 65.4966 26.2492 64.8756 26.2492C56.0422 26.2492 51.1418 28.5104 50.9371 28.6049C50.6446 28.7421 50.4263 28.9964 50.3363 29.3047C50.2575 29.5748 50.2823 29.8622 50.4031 30.1138C48.7028 29.4694 46.3302 28.5322 43.9602 27.4712C39.9011 25.6567 37.2835 26.2099 34.3825 28.4987H25.3802C25.4282 28.1395 25.4669 27.7959 25.4953 27.471C25.5246 27.129 25.3986 26.7915 25.1488 26.5575ZM51.7582 33.0138C50.5835 32.5932 46.8086 31.2131 43.04 29.5277C39.0576 27.748 37.1722 28.6637 33.5159 32.3222C31.9793 33.859 30.7935 36.1585 31.0297 37.1462C31.0635 37.2901 31.1265 37.4409 31.4775 37.5579C32.5777 37.9268 34.2247 38.1293 35.8154 35.7511C36.0022 35.4722 36.3036 35.2921 36.6389 35.2584C37.3947 35.1822 37.585 35.097 38.1431 34.8469L38.1487 34.8444L38.1986 34.8222C38.5599 34.6613 39.0194 34.4565 39.7439 34.1942C40.1511 34.0479 40.6123 34.147 40.9206 34.4575C42.1513 35.6882 44.0817 37.2496 46.1247 38.9011L46.127 38.9029C49.2234 41.4079 52.4111 43.9867 53.9626 46.0589L56.0182 44.6782C54.8631 41.2142 53.0784 36.2234 51.7582 33.0138ZM23.6677 44.2109C22.9965 43.51 22.3727 42.8627 21.9599 42.4753C22.9 39.3727 24.2582 34.6189 25.0059 30.7487H31.9079C30.3708 32.2944 28.3004 35.3917 28.8381 37.6659C29.0698 38.6379 29.7539 39.3579 30.7708 39.6931C33.3201 40.5346 35.6465 39.729 37.379 37.4297C38.0945 37.3194 38.4837 37.1574 39.0687 36.8942C39.2801 36.7997 39.5277 36.6895 39.8562 36.5567C41.1432 37.7649 42.8802 39.1711 44.7094 40.6494L44.7158 40.6545C48.0216 43.3284 51.7681 46.3587 52.6113 48.1125C53.0276 48.9787 52.5798 49.5435 52.276 49.8022C51.8443 50.1729 51.2585 50.2985 50.9217 50.095C50.0693 49.4068 46.5167 45.7696 44.3115 43.4708C43.8817 43.0208 43.1685 43.0051 42.7207 43.4371C42.2707 43.8668 42.2572 44.58 42.687 45.0278C43.2092 45.5724 47.4203 49.9618 49.1046 51.4965C48.9734 51.9825 48.5006 52.2727 48.2711 52.3874C47.5511 52.7519 46.7996 52.689 46.5183 52.4279C46.4926 52.404 46.466 52.3815 46.4385 52.3604C45.0815 51.2692 41.7159 47.6933 40.9534 46.8636C40.5304 46.4047 39.8217 46.3777 39.3627 46.7961C38.9059 47.2169 38.8745 47.9301 39.2952 48.3869L39.3193 48.4128L39.3194 48.4129L39.3195 48.413C39.6258 48.7422 42.7198 52.0678 44.5039 53.6654C44.2916 54.1984 43.8455 54.6586 43.3031 54.8691C42.9628 54.9981 42.4707 55.0765 42.027 54.6826C42.0104 54.6669 41.9933 54.6516 41.9757 54.6367C40.3714 53.2845 37.0887 49.7902 36.4475 49.1039C36.0223 48.6495 35.309 48.6247 34.8567 49.0499C34.4023 49.4752 34.3797 50.1861 34.8027 50.6407C35.5638 51.4555 37.8346 53.8645 39.5373 55.4685C39.3938 55.4876 39.2177 55.499 39.0012 55.499C38.2519 55.499 36.9042 54.9928 36.245 54.5563C35.4553 54.0365 30.503 50.3421 26.2259 46.7601C25.6252 46.2539 24.5857 45.1694 23.6677 44.2109ZM19.0536 44.249H14.2499V26.3302C17.8657 26.616 21.7671 27.2369 23.1846 27.9254C22.5884 32.8529 19.8906 41.6075 19.0536 44.249ZM58.9673 46.4989H63.7507V28.5127C58.398 28.6386 54.7103 29.6399 52.9936 30.2226C54.7508 33.9665 57.9008 43.0249 58.9673 46.4989Z" fill="white"></path></svg>