<svg xmlns="http://www.w3.org/2000/svg" width="78" height="78" viewBox="0 0 78 78" fill="none"><rect width="78" height="78" rx="24" fill="#3052FF"></rect><path d="M39.146 20.1462L39 20.0904L38.854 20.1462L23.2984 26.0903L23.0353 26.1908V26.4724V38.6164C23.0354 41.5301 23.8042 44.3907 25.2617 46.8986C26.7194 49.4067 28.8125 51.4702 31.3227 52.8725L31.3227 52.8726L31.3297 52.8763L31.8519 53.1548L31.8519 53.1549L31.8587 53.1584L38.8143 56.7022L39 56.7968L39.1857 56.7022L46.1412 53.1584C48.7023 51.8538 50.8711 49.872 52.421 47.4214C53.9709 44.9709 54.8453 42.1415 54.9533 39.2294L54.9533 39.2294L54.9535 39.2218L54.9646 38.624L54.9647 38.624V38.6164V26.4724V26.1908L54.7016 26.0903L39.146 20.1462ZM55.9695 22.6134L56.1156 22.2312L55.9695 22.6134C56.6847 22.8867 57.3101 23.3618 57.7721 23.9846C58.2326 24.6054 58.5116 25.3472 58.576 26.1241L58.5909 26.4809V38.6164C58.5908 42.2136 57.6376 45.7435 55.8325 48.8336C54.028 51.9226 51.4393 54.4572 48.3404 56.1706C48.3395 56.1711 48.3386 56.1716 48.3377 56.1721L47.7554 56.482L40.3056 60.2776C40.3056 60.2777 40.3055 60.2777 40.3055 60.2777C40.3055 60.2777 40.3054 60.2777 40.3054 60.2778C39.9458 60.4606 39.5535 60.5658 39.1528 60.5869C38.7552 60.6079 38.3575 60.5457 37.9841 60.404L37.6841 60.2724L30.2413 56.4804C27.0868 54.8731 24.4157 52.4274 22.5107 49.4004C20.6062 46.3743 19.5383 42.8798 19.4201 39.2857L19.4091 38.6131V26.4724C19.4091 25.6904 19.6272 24.925 20.0371 24.2654C20.4456 23.6082 21.0275 23.0834 21.7148 22.7505L22.0388 22.6102L37.5857 16.6694C38.3782 16.3673 39.2435 16.3271 40.0593 16.5543L40.4235 16.673L55.9695 22.6134ZM29.632 40.1822L29.6306 40.1808C29.3012 39.8483 29.1076 39.3985 29.0918 38.9231C29.076 38.4477 29.2392 37.9854 29.546 37.6305C29.8527 37.2759 30.2792 37.0557 30.7376 37.0125C31.192 36.9696 31.6464 37.1038 32.0092 37.3893L32.1992 37.5602L36.1191 41.5546L36.4111 41.8521L36.7031 41.5546L46.9204 31.1434C46.9205 31.1433 46.9205 31.1433 46.9206 31.1432C47.2474 30.8113 47.6845 30.62 48.1425 30.6058C48.6005 30.5915 49.048 30.7554 49.3939 31.0661C49.7399 31.3771 49.9584 31.8121 50.0024 32.2836C50.0461 32.7508 49.915 33.2166 49.6373 33.5879L49.4702 33.7807L37.848 45.6258C37.4947 45.9858 37.0253 46.1997 36.5295 46.2292C36.0373 46.2584 35.5507 46.1038 35.1607 45.793L34.9655 45.6169L29.632 40.1822Z" fill="white" stroke="#3052FF" stroke-width="0.818213"></path></svg>