<svg width="220" height="40" viewBox="0 0 220 40" fill="none" xmlns="http://www.w3.org/2000/svg">
<g clip-path="url(#clip0_7105_8677)">
<path d="M45.0579 3.03503C47.3826 3.03503 49.4866 3.59904 51.3701 4.72414C53.274 5.84924 54.7367 7.38504 55.7553 9.32578L52.1334 10.6504C51.402 9.39233 50.4182 8.40893 49.1761 7.70319C47.9369 6.97433 46.5642 6.60991 45.0579 6.60991C42.7102 6.60991 40.7628 7.41685 39.2101 9.02783C37.6372 10.662 36.8507 12.6692 36.8507 15.0525C36.8507 17.4358 37.6372 19.4459 39.2101 21.0772C40.7599 22.6881 42.7102 23.4951 45.0579 23.4951C46.5642 23.4951 47.9369 23.1423 49.1761 22.4365C50.4153 21.7077 51.402 20.7156 52.1334 19.4575L55.7553 20.7821C54.7367 22.7257 53.274 24.2587 51.3701 25.3837C49.4866 26.5089 47.3826 27.0729 45.0579 27.0729C41.6247 27.0729 38.7574 25.9246 36.453 23.631C34.1488 21.3346 32.9995 18.477 32.9995 15.0554C32.9995 11.6338 34.1517 8.77625 36.453 6.47975C38.7574 4.18328 41.6247 3.03793 45.0579 3.03793V3.03503Z" fill="#FFFFFF"/>
<path d="M72.2804 13.5884C71.1838 11.9552 69.5434 10.7405 67.6384 10.1548C65.7363 9.569 63.6843 9.64687 61.8322 10.374C59.9802 11.1041 58.4427 12.4371 57.4784 14.1511C56.5111 15.8649 56.1789 17.853 56.5376 19.7805C56.8933 21.705 57.9194 23.4507 59.4363 24.7232C60.9562 25.9927 62.8759 26.7083 64.8691 26.7487C66.0332 26.7834 67.1915 26.5785 68.2734 26.1543C69.3552 25.7301 70.3371 25.0896 71.1544 24.2788C72.5685 22.8967 73.4533 21.0789 73.6591 19.1312C73.862 17.1836 73.3769 15.2244 72.2804 13.5884ZM70.0314 20.3085C69.7639 20.9663 69.367 21.5636 68.8584 22.0686C68.3704 22.5678 67.7795 22.9631 67.1239 23.2257C66.4683 23.4853 65.7657 23.6094 65.0572 23.5863C64.3516 23.6008 63.649 23.4738 62.9934 23.2141C62.3379 22.9515 61.747 22.562 61.2502 22.0686C60.2506 21.0385 59.7038 19.6621 59.7362 18.2397C59.7185 17.5385 59.8449 16.8431 60.1037 16.191C60.3653 15.5389 60.7533 14.9445 61.2502 14.4425C61.7411 13.9404 62.332 13.5422 62.9876 13.2739C63.6432 13.0084 64.3487 12.8786 65.0572 12.893C65.7687 12.8699 66.4742 12.994 67.1298 13.2623C67.7854 13.5307 68.3763 13.9318 68.8584 14.4425C69.367 14.9387 69.7668 15.5302 70.0314 16.1853C70.2989 16.8373 70.4253 17.5356 70.4048 18.2397C70.4253 18.9466 70.296 19.6506 70.0314 20.3085Z" fill="#FFFFFF"/>
<path d="M122.734 9.76956C123.735 9.75518 124.726 9.93652 125.655 10.3021C126.583 10.6705 127.43 11.2175 128.144 11.9112V10.1755H131.395V26.3122H128.144V24.6082C126.626 26.033 124.605 26.8044 122.516 26.7497C120.428 26.6979 118.447 25.8257 117.005 24.326C115.538 22.6508 114.729 20.5034 114.729 18.2812C114.729 16.059 115.538 13.9146 117.005 12.2364C117.728 11.4449 118.613 10.8145 119.601 10.3885C120.587 9.96245 121.655 9.74944 122.731 9.76665L122.734 9.76956ZM123.079 13.0021C122.415 12.9906 121.753 13.1201 121.144 13.382C120.535 13.644 119.987 14.0326 119.541 14.522C119.062 15.0141 118.687 15.5985 118.442 16.2375C118.195 16.8765 118.082 17.5587 118.104 18.2438C118.068 19.6341 118.584 20.9812 119.541 21.9973C120.002 22.4695 120.556 22.8436 121.165 23.0969C121.774 23.3531 122.43 23.4855 123.094 23.4855C123.758 23.4855 124.411 23.3531 125.023 23.0969C125.632 22.8408 126.186 22.4665 126.647 21.9973C127.604 20.9812 128.12 19.6341 128.082 18.2438C128.109 17.5587 127.993 16.8765 127.746 16.2375C127.499 15.5985 127.125 15.0141 126.647 14.522C126.197 14.0297 125.646 13.6411 125.031 13.3763C124.416 13.1143 123.752 12.9849 123.082 12.9992L123.079 13.0021Z" fill="#FFFFFF"/>
<path d="M82.3513 9.76956C83.3515 9.75518 84.3438 9.93652 85.2718 10.3021C86.1997 10.6705 87.0467 11.2175 87.7601 11.9112V10.1755H91.0122V26.3122H87.7601V24.6082C86.2437 26.033 84.2221 26.8044 82.1336 26.7497C80.0452 26.6979 78.0641 25.8257 76.6225 24.326C75.1549 22.6508 74.3457 20.5034 74.3457 18.2812C74.3457 16.059 75.1549 13.9146 76.6225 12.2364C77.3448 11.4449 78.2295 10.8145 79.2186 10.3885C80.2047 9.96245 81.2717 9.74944 82.3481 9.76665L82.3513 9.76956ZM82.6962 13.0021C82.0323 12.9906 81.3707 13.1201 80.7618 13.382C80.1528 13.644 79.6044 14.0326 79.1573 14.522C78.6788 15.0141 78.3048 15.5985 78.0584 16.2375C77.8118 16.8765 77.6987 17.5587 77.7218 18.2438C77.6842 19.6341 78.2004 20.9812 79.1573 21.9973C79.6186 22.4695 80.1725 22.8436 80.7822 23.0969C81.3911 23.3531 82.0464 23.4855 82.7103 23.4855C83.3751 23.4855 84.0272 23.3531 84.6393 23.0969C85.249 22.8408 85.8029 22.4665 86.2641 21.9973C87.2211 20.9812 87.7373 19.6341 87.6996 18.2438C87.7256 17.5587 87.6093 16.8765 87.3633 16.2375C87.1166 15.5985 86.7426 15.0141 86.2641 14.522C85.8139 14.0297 85.2631 13.6411 84.6479 13.3763C84.0335 13.1143 83.3688 12.9849 82.6993 12.9992L82.6962 13.0021Z" fill="#FFFFFF"/>
<path d="M105.143 13.9644L102.102 14.5116C101.691 13.2955 100.628 12.6874 98.9131 12.6874C98.1172 12.6874 97.4651 12.8583 96.9567 13.1999C96.4507 13.5155 96.1954 13.9297 96.1954 14.4422C96.1954 15.1226 96.7265 15.6699 97.7896 16.084L101.449 17.361C104.107 18.3107 105.434 19.8802 105.434 22.0722C105.434 23.6532 104.853 24.8839 103.696 25.7583C102.538 26.6328 101.027 27.0729 99.1685 27.0729C97.3103 27.0729 95.8363 26.6589 94.6789 25.8307C93.5208 25.0026 92.8317 23.8848 92.6133 22.4718L95.7271 21.9969C95.8481 22.6542 96.2213 23.1783 96.8506 23.5663C97.5028 23.9573 98.2979 24.1513 99.24 24.1513C100.183 24.1513 100.869 23.9688 101.449 23.6039C102.029 23.2391 102.32 22.7642 102.32 22.1793C102.32 21.3772 101.656 20.7431 100.329 20.2797L96.7069 19.0751C94.268 18.2238 93.047 16.7615 93.047 14.6941C93.047 13.1131 93.6017 11.894 94.7135 11.0427C95.8245 10.1914 97.3103 9.76569 99.1685 9.76569C100.834 9.76569 102.199 10.1421 103.262 10.8979C104.324 11.6537 104.951 12.6758 105.146 13.9644H105.143Z" fill="#FFFFFF"/>
<path d="M136.84 26.4316H133.639V2.71429H136.824L136.844 26.4316H136.84Z" fill="#FFFFFF"/>
<path fill-rule="evenodd" clip-rule="evenodd" d="M114.01 12.9232V10.0815H109.67V6.88068H106.402V17.0597H106.396V19.9186C106.392 21.7146 107.101 23.441 108.37 24.7185C109.638 25.9988 111.368 26.7287 113.175 26.7519H113.342C114.66 26.7056 115.952 26.3811 117.13 25.7989C118.308 25.2138 119.349 24.3853 120.177 23.3686L117.623 21.3149C117.089 21.9695 116.421 22.5025 115.663 22.8761C114.913 23.2469 114.092 23.4555 113.254 23.4874H113.205C112.266 23.4729 111.368 23.0934 110.708 22.4272C110.047 21.761 109.676 20.8601 109.679 19.9245L109.653 17.4623V12.9232H114.004H114.01Z" fill="#FFFFFF"/>
<path d="M210.879 12.8621V10.0553H206.675V6.88068H203.508V21.2021C203.5 21.86 203.622 22.515 203.875 23.1183C204.126 23.7245 204.498 24.2703 204.965 24.7185C205.942 25.6464 207.234 26.1464 208.563 26.109H210.876V23.0235H208.803C208.521 23.035 208.238 22.9832 207.975 22.8741C207.712 22.765 207.477 22.5983 207.281 22.3886C207.08 22.1788 206.921 21.9289 206.815 21.6531C206.708 21.3773 206.658 21.0842 206.663 20.7883V12.8621H210.874H210.879Z" fill="#FFFFFF"/>
<path d="M199.893 11.8998C198.416 10.3984 196.407 9.52589 194.29 9.47372C192.177 9.42154 190.124 10.1897 188.573 11.6187V2.71429H185.269V15.7781C185.269 17.6158 184.658 19.4216 183.45 20.813C183.368 20.9086 183.28 21.0013 183.193 21.0941C181.602 22.6941 179.009 23.6303 176.428 23.5405C174.328 23.4652 172.524 22.7318 171.473 21.526C170.91 20.8129 170.521 19.9869 170.328 19.1173L183.589 19.068L183.598 17.6013C183.604 16.6622 183.482 15.7231 183.196 14.8274C182.743 13.4245 181.972 12.1955 180.915 11.1897L180.874 11.152C178.223 8.80421 174.001 8.57227 170.828 10.6129C167.405 12.8477 167.02 16.6941 166.979 17.4622C166.883 19.6593 167.59 21.8217 168.967 23.5434L169.006 23.5869C170.638 25.4855 173.304 26.6362 176.317 26.7434C176.474 26.7492 176.632 26.7521 176.79 26.7521C180.132 26.7521 183.359 25.497 185.514 23.326C185.864 22.9608 186.182 22.5753 186.477 22.1724C186.597 22.3898 186.722 22.6014 186.863 22.8043C186.863 22.8043 186.863 22.8043 186.863 22.8071C187.225 23.3405 187.651 23.8304 188.132 24.2652C189.178 25.2043 190.445 25.8651 191.814 26.1898H191.826C191.855 26.1956 191.884 26.2042 191.914 26.213C191.946 26.2217 191.978 26.2275 192.01 26.2332H192.007C192.746 26.4333 193.517 26.526 194.293 26.5057C196.407 26.4536 198.419 25.584 199.896 24.0796C201.397 22.4014 202.226 20.2361 202.226 17.9927C202.226 15.7491 201.397 13.5839 199.896 11.9057L199.893 11.8998ZM172.588 13.2883C173.435 12.7462 174.521 12.4071 175.625 12.4071C176.729 12.4071 177.811 12.7347 178.705 13.5172C179.237 14.0274 179.651 14.6303 179.94 15.3057C180.019 15.4912 180.089 15.6825 180.147 15.8738L170.576 15.9115C170.898 15.0361 171.493 14.01 172.591 13.2912L172.588 13.2883ZM198.392 20.0013C198.142 20.6478 197.765 21.239 197.286 21.7405C196.816 22.2245 196.252 22.6043 195.627 22.8622C195.003 23.1202 194.334 23.2449 193.657 23.2332C192.988 23.2478 192.323 23.1231 191.704 22.8651C191.084 22.6072 190.53 22.2245 190.068 21.7405C189.587 21.239 189.21 20.6478 188.959 20.0013C188.708 19.3549 188.588 18.6651 188.605 17.9723C188.583 17.2825 188.699 16.5984 188.95 15.9549C189.201 15.3115 189.584 14.7289 190.072 14.2361C190.527 13.7434 191.081 13.352 191.7 13.0882C192.32 12.8245 192.988 12.694 193.66 12.7057C194.34 12.6911 195.015 12.8216 195.639 13.0853C196.264 13.3492 196.825 13.7405 197.289 14.2361C197.776 14.7289 198.156 15.3115 198.407 15.9549C198.658 16.5984 198.775 17.2825 198.749 17.9723C198.766 18.6651 198.649 19.3549 198.399 20.0013H198.392Z" fill="#FFFFFF"/>
<path d="M154.56 26.7517H145.497V4.31635H154.56C157.904 4.31635 160.7 5.4024 162.953 7.57449C165.205 9.7466 166.33 12.4066 166.33 15.5514C166.33 18.6963 165.205 21.3562 162.953 23.5283C160.723 25.6772 157.925 26.7517 154.56 26.7517ZM154.56 7.97232H149.476V23.0957H154.56C156.721 23.0957 158.527 22.3755 159.975 20.9352C161.448 19.4716 162.181 17.6771 162.181 15.5514C162.181 13.4258 161.445 11.608 159.975 10.1677C158.503 8.70412 156.697 7.97523 154.56 7.97523V7.97232Z" fill="#FFFFFF"/>
<path d="M214.793 23.6542H213.764V23.2257H216.287V23.6542H215.258V26.1102H214.793V23.6542ZM217.171 26.1102H216.705V23.2257H217.171L218.278 25.1497L219.383 23.2257H219.854V26.1102H219.383V24.1028L218.432 25.768H218.124L217.171 24.1028V26.1102Z" fill="#FFFFFF"/>
<path d="M144.856 31.9958H148.185C148.868 31.9958 149.436 32.2201 149.887 32.6568C150.337 33.0935 150.57 33.6482 150.57 34.2973C150.57 35.3093 149.962 36.1296 149.037 36.4601L150.844 39.4519H149.781L148.06 36.5958H145.802V39.4519H144.856V31.9958ZM148.185 32.8899H145.802V35.7017H148.185C148.583 35.7017 148.92 35.5631 149.183 35.2976C149.444 35.032 149.581 34.6897 149.581 34.2973C149.581 33.4888 148.981 32.8899 148.185 32.8899ZM155.239 31.9958H160.533V32.8899H156.184V35.2327H159.995V36.1266H156.184V38.555H160.586V39.449H155.242V31.9929L155.239 31.9958ZM169.973 33.542L169.039 33.8193C168.913 33.2557 168.262 32.8072 167.454 32.8072C167.023 32.8072 166.656 32.9135 166.36 33.1377C166.078 33.3502 165.929 33.6157 165.929 33.9462C165.929 34.2973 166.097 34.5628 166.517 34.7783C166.936 34.9819 167.232 35.0674 167.934 35.2473C168.428 35.3742 168.69 35.4391 169.141 35.6634C169.781 35.9732 170.159 36.463 170.202 37.3364C170.202 38.0061 169.949 38.5402 169.446 38.9562C168.951 39.3723 168.312 39.5729 167.535 39.5729C166.831 39.5729 166.223 39.4017 165.728 39.0713C165.234 38.7409 164.92 38.316 164.783 37.7937L165.728 37.5075C165.844 38.1478 166.578 38.6464 167.535 38.6464C168.03 38.6464 168.437 38.5284 168.763 38.3071C169.088 38.074 169.257 37.776 169.257 37.4131C169.257 37.0502 169.079 36.7639 168.734 36.581C168.387 36.3981 168.134 36.3037 167.671 36.1856L167.23 36.0676L166.82 35.9407L166.389 35.7903C166.304 35.7578 166.179 35.6958 166.01 35.6191C165.685 35.4598 165.612 35.3625 165.391 35.1618C165.085 34.852 165.013 34.5127 164.972 34.0111C164.972 33.3826 165.202 32.8722 165.665 32.4768C166.127 32.0815 166.714 31.8808 167.439 31.8808C168.079 31.8808 168.635 32.0401 169.088 32.3499C169.551 32.6598 169.845 33.064 169.969 33.542H169.973ZM178.219 31.8808C179.301 31.8808 180.203 32.2526 180.928 32.9872C181.652 33.722 182.022 34.6277 182.022 35.7254C182.022 36.8229 181.655 37.7377 180.928 38.4723C180.203 39.207 179.299 39.57 178.219 39.57C177.14 39.57 176.236 39.207 175.511 38.4723C174.787 37.7377 174.429 36.82 174.429 35.7254C174.429 34.6307 174.787 33.722 175.511 32.9872C176.236 32.2526 177.138 31.8808 178.219 31.8808ZM178.219 38.6434C179.028 38.6434 179.689 38.3661 180.227 37.8114C180.762 37.2479 181.035 36.5545 181.035 35.7224C181.035 34.8904 180.762 34.1999 180.227 33.6452C179.691 33.0817 179.028 32.8043 178.219 32.8043C177.411 32.8043 176.75 33.0817 176.212 33.6452C175.677 34.1999 175.403 34.8904 175.403 35.7224C175.403 36.5545 175.677 37.2449 176.212 37.8114C176.748 38.3661 177.42 38.6434 178.219 38.6434ZM186.623 31.9958H187.569V38.5579H191.548V39.4519H186.623V31.9958ZM198.437 39.4519H197.669L194.498 31.9958H195.496L198.059 38.0681L198.3 37.4721L200.61 31.9958H201.607L198.437 39.4519ZM205.86 31.9958H211.152V32.8899H206.803V35.2327H210.614V36.1266H206.803V38.555H211.201V39.449H205.857V31.9929L205.86 31.9958Z" fill="#FFFFFF"/>
<path d="M0 28.8385L19.4045 9.43115L24.6017 14.6284V16.3443L19.4045 21.5677L10.3275 30.6417H1.80608L0 28.8385Z" fill="#3052FF"/>
<path d="M13.3377 15.5009L19.4074 9.43117L10.3304 0.357117H1.80608L0 2.1632L13.3377 15.5009Z" fill="#7FB2FF"/>
</g>
<defs>
<clipPath id="clip0_7105_8677">
<rect width="220" height="39.2857" fill="white" transform="translate(0 0.357117)"/>
</clipPath>
</defs>
</svg>